<svg width="0" height="0" class="hidden">
  <symbol fill="none" xmlns="http://www.w3.org/2000/svg" viewBox="0 0 40 40" id="arrow-to-top-small">
    <circle cx="20" cy="20" r="20" fill="#242424"></circle>
    <path fill-rule="evenodd" clip-rule="evenodd" d="M20.6477 14.9912L20.6477 25.2024L19.5613 25.2024L19.5613 14.9912L14.4557 20.0968L13.6875 19.3286L20.1045 12.9116L26.5215 19.3286L25.7533 20.0968L20.6477 14.9912Z" fill="#F4F4F4" stroke="#F4F4F4" stroke-width="0.3"></path>
  </symbol>
  <symbol fill="none" xmlns="http://www.w3.org/2000/svg" viewBox="0 0 32 32" id="icon-runnig-man-white">
    <circle cx="16" cy="16" r="16" fill="#F4F4F4" fill-opacity="0.2"></circle>
    <path d="M24.7293 11.907C24.4611 11.594 23.9834 11.5528 23.6631 11.8138L21.5637 13.5369L20.5983 11.1998C20.564 11.1121 20.5119 11.0384 20.452 10.9734C20.2547 10.5446 19.9122 10.1763 19.44 9.96297C19.235 9.872 19.0233 9.82326 18.8116 9.79944C18.765 9.77561 18.7229 9.7442 18.6697 9.72796L14.9754 8.72184C14.7681 8.6666 14.5597 8.70234 14.3891 8.79981C14.1862 8.86696 14.0122 9.011 13.9291 9.22002L12.538 12.7149C12.3873 13.0951 12.5801 13.5239 12.9703 13.6734C13.3582 13.8207 13.7983 13.6311 13.9501 13.2499L15.125 10.2987L16.8076 10.7557C16.7666 10.8207 16.7222 10.8814 16.689 10.9507L14.532 15.5188C14.501 15.586 14.4844 15.6542 14.4622 15.7235L11.8408 20.0177L7.45378 21.4516C6.95721 21.8144 6.85192 22.4978 7.2188 22.983C7.5879 23.4692 8.28951 23.5721 8.78497 23.2137L13.274 21.7029C13.4114 21.6054 13.5112 21.4776 13.5866 21.34C13.6431 21.2816 13.7074 21.235 13.7506 21.1624L15.3135 18.6022L18.0878 20.9123L15.1195 24.1808C14.7105 24.6313 14.7515 25.3255 15.2148 25.7241C15.677 26.1259 16.3853 26.0836 16.7965 25.6309L20.5008 21.5534C20.6161 21.4278 20.6848 21.2826 20.7313 21.131C20.759 21.0487 20.759 20.9632 20.7657 20.8776C20.7657 20.8343 20.7823 20.7953 20.779 20.7552C20.769 20.4563 20.6449 20.1661 20.3944 19.9592L17.8417 17.8322C18.0257 17.661 18.182 17.4574 18.2951 17.2181L19.9488 13.7189L20.4786 15.0975C20.5008 15.2199 20.5429 15.3401 20.6316 15.4409C20.7114 15.534 20.8134 15.5957 20.922 15.6391C20.9331 15.6445 20.9464 15.6456 20.9597 15.6488C21.0284 15.6726 21.0982 15.6954 21.1703 15.6986C21.2556 15.7062 21.3421 15.6954 21.4296 15.6715C21.4318 15.6705 21.4329 15.6705 21.4329 15.6705C21.4562 15.665 21.4795 15.6694 21.5028 15.6596C21.6258 15.6141 21.72 15.5372 21.8009 15.4474L24.8136 12.9488C25.1339 12.6857 24.9987 12.22 24.7293 11.907Z" fill="#F4F4F4"></path>
    <path d="M20.9191 10.1263C22.0853 10.1263 23.0306 9.20259 23.0306 8.06314C23.0306 6.9237 22.0853 6 20.9191 6C19.753 6 18.8076 6.9237 18.8076 8.06314C18.8076 9.20259 19.753 10.1263 20.9191 10.1263Z" fill="#F4F4F4"></path>
  </symbol>
  <symbol fill="none" xmlns="http://www.w3.org/2000/svg" viewBox="0 0 24 24" id="inverted-commas">
    <path d="M6.15077 13.1014C7.31014 12.642 8.23983 12.7623 8.93984 13.4623C9.63984 14.1623 9.84764 15.2779 9.56326 16.8092C9.34452 17.9467 8.86328 18.8217 8.11952 19.4342C7.39764 20.0248 6.55546 20.3201 5.59296 20.3201C4.28045 20.3201 3.37265 19.817 2.86952 18.8107C2.3664 17.7826 2.26796 16.4045 2.57421 14.6764C2.7492 13.7357 3.03358 12.7842 3.42732 11.8217C3.82109 10.8592 4.34609 9.87481 5.00232 8.86856C5.65858 7.86232 6.51171 6.9873 7.56171 6.24356C8.61171 5.4998 9.77108 5.01856 11.0398 4.7998L10.7117 8.27792C9.63984 8.49668 8.68827 9.05449 7.85703 9.95137C7.02576 10.8264 6.45701 11.8764 6.15077 13.1014ZM16.0273 13.1014C17.1867 12.642 18.1164 12.7623 18.8164 13.4623C19.5164 14.1623 19.7242 15.2779 19.4398 16.8092C19.2211 17.9467 18.7398 18.8217 17.9961 19.4342C17.2742 20.0248 16.432 20.3201 15.4695 20.3201C14.157 20.3201 13.2492 19.817 12.7461 18.8107C12.243 17.7826 12.1445 16.4045 12.4508 14.6764C12.6258 13.7357 12.9102 12.7842 13.3039 11.8217C13.6976 10.8592 14.2226 9.87481 14.8789 8.86856C15.5352 7.86232 16.3883 6.9873 17.4383 6.24356C18.4883 5.4998 19.6477 5.01856 20.9164 4.7998L20.5883 8.27792C19.5164 8.49668 18.5648 9.05449 17.7336 9.95137C16.9023 10.8264 16.3336 11.8764 16.0273 13.1014Z" fill="#F4F4F4"></path>
  </symbol>
  <symbol fill="none" xmlns="http://www.w3.org/2000/svg" viewBox="0 0 132 24" id="logo">
    <path d="M4.98 13.28L0 5H2.98L6.32 10.74H6.36L9.7 5H12.68L7.7 13.28V19H4.98V13.28Z" fill="#242424"></path>
    <path d="M12.6703 16.7V7.3L14.9703 5H22.1703L24.4703 7.3V16.7L22.1703 19H14.9703L12.6703 16.7ZM20.7303 16.68L21.7503 15.66V8.34L20.7303 7.32H16.4103L15.3903 8.34V15.66L16.4103 16.68H20.7303Z" fill="#242424"></path>
    <path d="M26.3742 16.6V5H29.0942V15.66L30.1142 16.68H34.0342L35.0542 15.66V5H37.7742V16.6L35.3742 19H28.7742L26.3742 16.6Z" fill="#242424"></path>
    <path d="M50.8781 14.36V19H48.1581V14.98L46.9581 13.64H42.5981V19H39.8781V5H48.6581L50.7981 7.16V11.4L49.4381 12.78L50.8781 14.36ZM42.5981 11.4H47.4181L48.1181 10.7V7.98L47.4181 7.28H42.5981V11.4Z" fill="#242424"></path>
    <path d="M57.8234 5H67.9434V7.3H60.5434V10.84H67.3634V13.1H60.5434V16.7H67.9434V19H57.8234V5Z" fill="#242424"></path>
    <path d="M69.4523 5H71.8923L78.1323 14.5H78.1723V5H80.7923V19H78.3523L72.1123 9.52H72.0723V19H69.4523V5Z" fill="#242424"></path>
    <path d="M82.8977 5H93.0177V7.3H85.6177V10.84H92.4377V13.1H85.6177V16.7H93.0177V19H82.8977V5Z" fill="#242424"></path>
    <path d="M105.527 14.36V19H102.807V14.98L101.607 13.64H97.2466V19H94.5266V5H103.307L105.447 7.16V11.4L104.087 12.78L105.527 14.36ZM97.2466 11.4H102.067L102.767 10.7V7.98L102.067 7.28H97.2466V11.4Z" fill="#242424"></path>
    <path d="M107.323 16.7V7.3L109.623 5H116.583L118.843 7.26V9.4H116.123V8.26L115.183 7.32H111.063L110.043 8.34V15.66L111.063 16.68H115.223L116.203 15.7V13.52H113.203V11.2H118.843V16.7L116.543 19H109.623L107.323 16.7Z" fill="#242424"></path>
    <path d="M123.828 13.28L118.848 5H121.828L125.168 10.74H125.208L128.548 5H131.528L126.548 13.28V19H123.828V13.28Z" fill="#242424"></path>
  </symbol>
  <symbol fill="none" xmlns="http://www.w3.org/2000/svg" viewBox="0 0 32 32" id="page-pagination-arrow-end">
    <rect x="-0.5" y="0.5" width="31" height="31" rx="15.5" transform="matrix(-1 0 0 1 31 0)" stroke="#242424"></rect>
    <path d="M21.1671 16.5917C21.2452 16.5142 21.3072 16.4221 21.3495 16.3205C21.3918 16.219 21.4136 16.11 21.4136 16C21.4136 15.89 21.3918 15.7811 21.3495 15.6795C21.3072 15.578 21.2452 15.4858 21.1671 15.4084L17.3421 11.5917C17.264 11.5142 17.202 11.422 17.1597 11.3205C17.1174 11.2189 17.0956 11.11 17.0956 11C17.0956 10.89 17.1174 10.7811 17.1597 10.6795C17.202 10.578 17.264 10.4858 17.3421 10.4083C17.4982 10.2531 17.7095 10.166 17.9296 10.166C18.1498 10.166 18.361 10.2531 18.5171 10.4083L22.3421 14.2334C22.8103 14.7021 23.0732 15.3375 23.0732 16C23.0732 16.6625 22.8103 17.2979 22.3421 17.7667L18.5171 21.5917C18.3619 21.7457 18.1524 21.8324 17.9338 21.8334C17.8241 21.834 17.7154 21.813 17.6139 21.7715C17.5123 21.73 17.42 21.6689 17.3421 21.5917C17.264 21.5142 17.202 21.4221 17.1597 21.3205C17.1174 21.219 17.0956 21.11 17.0956 21C17.0956 20.89 17.1174 20.7811 17.1597 20.6795C17.202 20.578 17.264 20.4858 17.3421 20.4084L21.1671 16.5917Z" fill="#242424"></path>
    <path d="M14.1671 16.5917C14.2452 16.5142 14.3072 16.4221 14.3495 16.3205C14.3918 16.219 14.4136 16.11 14.4136 16C14.4136 15.89 14.3918 15.7811 14.3495 15.6795C14.3072 15.578 14.2452 15.4858 14.1671 15.4084L10.3421 11.5917C10.264 11.5142 10.202 11.422 10.1597 11.3205C10.1174 11.2189 10.0956 11.11 10.0956 11C10.0956 10.89 10.1174 10.7811 10.1597 10.6795C10.202 10.578 10.264 10.4858 10.3421 10.4083C10.4982 10.2531 10.7095 10.166 10.9296 10.166C11.1498 10.166 11.361 10.2531 11.5171 10.4083L15.3421 14.2334C15.8103 14.7021 16.0732 15.3375 16.0732 16C16.0732 16.6625 15.8103 17.2979 15.3421 17.7667L11.5171 21.5917C11.3619 21.7457 11.1524 21.8324 10.9338 21.8334C10.8241 21.834 10.7154 21.813 10.6139 21.7715C10.5123 21.73 10.42 21.6689 10.3421 21.5917C10.264 21.5142 10.202 21.4221 10.1597 21.3205C10.1174 21.219 10.0956 21.11 10.0956 21C10.0956 20.89 10.1174 20.7811 10.1597 20.6795C10.202 20.578 10.264 20.4858 10.3421 20.4084L14.1671 16.5917Z" fill="#242424"></path>
  </symbol>
  <symbol fill="none" xmlns="http://www.w3.org/2000/svg" viewBox="0 0 32 32" id="page-pagination-arrow-next">
    <rect x="-0.5" y="0.5" width="31" height="31" rx="15.5" transform="matrix(-1 0 0 1 31 0)" stroke="#242424"></rect>
    <path d="M17.1671 16.5917C17.2452 16.5142 17.3072 16.4221 17.3495 16.3205C17.3918 16.219 17.4136 16.11 17.4136 16C17.4136 15.89 17.3918 15.7811 17.3495 15.6795C17.3072 15.578 17.2452 15.4858 17.1671 15.4084L13.3421 11.5917C13.264 11.5142 13.202 11.422 13.1597 11.3205C13.1174 11.2189 13.0956 11.11 13.0956 11C13.0956 10.89 13.1174 10.7811 13.1597 10.6795C13.202 10.578 13.264 10.4858 13.3421 10.4083C13.4982 10.2531 13.7095 10.166 13.9296 10.166C14.1498 10.166 14.361 10.2531 14.5171 10.4083L18.3421 14.2334C18.8103 14.7021 19.0732 15.3375 19.0732 16C19.0732 16.6625 18.8103 17.2979 18.3421 17.7667L14.5171 21.5917C14.3619 21.7457 14.1524 21.8324 13.9338 21.8334C13.8241 21.834 13.7154 21.813 13.6139 21.7715C13.5123 21.73 13.42 21.6689 13.3421 21.5917C13.264 21.5142 13.202 21.4221 13.1597 21.3205C13.1174 21.219 13.0956 21.11 13.0956 21C13.0956 20.89 13.1174 20.7811 13.1597 20.6795C13.202 20.578 13.264 20.4858 13.3421 20.4084L17.1671 16.5917Z" fill="#242424"></path>
  </symbol>
  <symbol fill="none" xmlns="http://www.w3.org/2000/svg" viewBox="0 0 32 32" id="page-pagination-arrow-prev">
    <rect x="0.5" y="0.5" width="31" height="31" rx="15.5" stroke="#242424" stroke-opacity="0.1"></rect>
    <path d="M14.8329 16.5917C14.7548 16.5142 14.6928 16.4221 14.6505 16.3205C14.6082 16.219 14.5864 16.11 14.5864 16C14.5864 15.89 14.6082 15.7811 14.6505 15.6795C14.6928 15.578 14.7548 15.4858 14.8329 15.4084L18.6579 11.5917C18.736 11.5142 18.798 11.422 18.8403 11.3205C18.8826 11.2189 18.9044 11.11 18.9044 11C18.9044 10.89 18.8826 10.7811 18.8403 10.6795C18.798 10.578 18.736 10.4858 18.6579 10.4083C18.5018 10.2531 18.2905 10.166 18.0704 10.166C17.8502 10.166 17.639 10.2531 17.4829 10.4083L13.6579 14.2334C13.1897 14.7021 12.9268 15.3375 12.9268 16C12.9268 16.6625 13.1897 17.2979 13.6579 17.7667L17.4829 21.5917C17.6381 21.7457 17.8476 21.8324 18.0662 21.8334C18.1759 21.834 18.2846 21.813 18.3861 21.7715C18.4877 21.73 18.58 21.6689 18.6579 21.5917C18.736 21.5142 18.798 21.4221 18.8403 21.3205C18.8826 21.219 18.9044 21.11 18.9044 21C18.9044 20.89 18.8826 20.7811 18.8403 20.6795C18.798 20.578 18.736 20.4858 18.6579 20.4084L14.8329 16.5917Z" fill="#242424" fill-opacity="0.5"></path>
  </symbol>
  <symbol fill="none" xmlns="http://www.w3.org/2000/svg" viewBox="0 0 32 32" id="page-pagination-arrow-start">
    <rect x="0.5" y="0.5" width="31" height="31" rx="15.5" stroke="#242424" stroke-opacity="0.1"></rect>
    <path d="M10.8329 16.5917C10.7548 16.5142 10.6928 16.4221 10.6505 16.3205C10.6082 16.219 10.5864 16.11 10.5864 16C10.5864 15.89 10.6082 15.7811 10.6505 15.6795C10.6928 15.578 10.7548 15.4858 10.8329 15.4084L14.6579 11.5917C14.736 11.5142 14.798 11.422 14.8403 11.3205C14.8826 11.2189 14.9044 11.11 14.9044 11C14.9044 10.89 14.8826 10.7811 14.8403 10.6795C14.798 10.578 14.736 10.4858 14.6579 10.4083C14.5018 10.2531 14.2905 10.166 14.0704 10.166C13.8502 10.166 13.639 10.2531 13.4829 10.4083L9.65789 14.2334C9.18972 14.7021 8.92676 15.3375 8.92676 16C8.92676 16.6625 9.18972 17.2979 9.65789 17.7667L13.4829 21.5917C13.6381 21.7457 13.8476 21.8324 14.0662 21.8334C14.1759 21.834 14.2846 21.813 14.3861 21.7715C14.4877 21.73 14.58 21.6689 14.6579 21.5917C14.736 21.5142 14.798 21.4221 14.8403 21.3205C14.8826 21.219 14.9044 21.11 14.9044 21C14.9044 20.89 14.8826 20.7811 14.8403 20.6795C14.798 20.578 14.736 20.4858 14.6579 20.4084L10.8329 16.5917Z" fill="#242424" fill-opacity="0.5"></path>
    <path d="M17.8329 16.5917C17.7548 16.5142 17.6928 16.4221 17.6505 16.3205C17.6082 16.219 17.5864 16.11 17.5864 16C17.5864 15.89 17.6082 15.7811 17.6505 15.6795C17.6928 15.578 17.7548 15.4858 17.8329 15.4084L21.6579 11.5917C21.736 11.5142 21.798 11.422 21.8403 11.3205C21.8826 11.2189 21.9044 11.11 21.9044 11C21.9044 10.89 21.8826 10.7811 21.8403 10.6795C21.798 10.578 21.736 10.4858 21.6579 10.4083C21.5018 10.2531 21.2905 10.166 21.0704 10.166C20.8502 10.166 20.639 10.2531 20.4829 10.4083L16.6579 14.2334C16.1897 14.7021 15.9268 15.3375 15.9268 16C15.9268 16.6625 16.1897 17.2979 16.6579 17.7667L20.4829 21.5917C20.6381 21.7457 20.8476 21.8324 21.0662 21.8334C21.1759 21.834 21.2846 21.813 21.3861 21.7715C21.4877 21.73 21.58 21.6689 21.6579 21.5917C21.736 21.5142 21.798 21.4221 21.8403 21.3205C21.8826 21.219 21.9044 21.11 21.9044 21C21.9044 20.89 21.8826 20.7811 21.8403 20.6795C21.798 20.578 21.736 20.4858 21.6579 20.4084L17.8329 16.5917Z" fill="#242424" fill-opacity="0.5"></path>
  </symbol>
  <symbol fill="none" xmlns="http://www.w3.org/2000/svg" viewBox="0 0 100 100" id="arrow-to-top-bog">
    <circle cx="50" cy="50" r="50" fill="#242424"></circle>
    <path fill-rule="evenodd" clip-rule="evenodd" d="M51.6192 37.4778L51.6192 63.0059L48.9033 63.0059L48.9033 37.4778L36.1392 50.2419L34.2187 48.3214L50.2612 32.2789L66.3037 48.3214L64.3833 50.2419L51.6192 37.4778Z" fill="#F4F4F4" stroke="#F4F4F4" stroke-width="0.3"></path>
  </symbol>
  <symbol fill="none" xmlns="http://www.w3.org/2000/svg" viewBox="0 0 18 18" id="icon-close">
    <path d="M12.75 5.25L5.25 12.75M5.25 5.25L12.75 12.75" stroke="#242424" stroke-width="1.5" stroke-linecap="round" stroke-linejoin="round"></path>
  </symbol>
  <symbol fill="none" xmlns="http://www.w3.org/2000/svg" viewBox="0 0 18 18" id="search">
    <path d="M8.25 14.25C11.5637 14.25 14.25 11.5637 14.25 8.25C14.25 4.93629 11.5637 2.25 8.25 2.25C4.93629 2.25 2.25 4.93629 2.25 8.25C2.25 11.5637 4.93629 14.25 8.25 14.25Z" stroke="#242424" stroke-width="1.5" stroke-linecap="round" stroke-linejoin="round"></path>
    <path d="M15.7498 15.75L12.4873 12.4875" stroke="#242424" stroke-width="1.5" stroke-linecap="round" stroke-linejoin="round"></path>
  </symbol>
  <symbol fill="none" xmlns="http://www.w3.org/2000/svg" viewBox="0 0 20 20" id="trash-white">
    <path d="M13.3333 4.99996V4.33329C13.3333 3.39987 13.3333 2.93316 13.1517 2.57664C12.9919 2.26304 12.7369 2.00807 12.4233 1.84828C12.0668 1.66663 11.6001 1.66663 10.6667 1.66663H9.33333C8.39991 1.66663 7.9332 1.66663 7.57668 1.84828C7.26308 2.00807 7.00811 2.26304 6.84832 2.57664C6.66667 2.93316 6.66667 3.39987 6.66667 4.33329V4.99996M8.33333 9.58329V13.75M11.6667 9.58329V13.75M2.5 4.99996H17.5M15.8333 4.99996V14.3333C15.8333 15.7334 15.8333 16.4335 15.5608 16.9683C15.3212 17.4387 14.9387 17.8211 14.4683 18.0608C13.9335 18.3333 13.2335 18.3333 11.8333 18.3333H8.16667C6.76654 18.3333 6.06647 18.3333 5.53169 18.0608C5.06129 17.8211 4.67883 17.4387 4.43915 16.9683C4.16667 16.4335 4.16667 15.7334 4.16667 14.3333V4.99996" stroke="#F4F4F4" stroke-width="1.5" stroke-linecap="round" stroke-linejoin="round"></path>
  </symbol>
  <symbol fill="none" xmlns="http://www.w3.org/2000/svg" viewBox="0 0 20 20" id="trash-black">
    <path d="M13.3333 4.99996V4.33329C13.3333 3.39987 13.3333 2.93316 13.1517 2.57664C12.9919 2.26304 12.7369 2.00807 12.4233 1.84828C12.0668 1.66663 11.6001 1.66663 10.6667 1.66663H9.33333C8.39991 1.66663 7.9332 1.66663 7.57668 1.84828C7.26308 2.00807 7.00811 2.26304 6.84832 2.57664C6.66667 2.93316 6.66667 3.39987 6.66667 4.33329V4.99996M8.33333 9.58329V13.75M11.6667 9.58329V13.75M2.5 4.99996H17.5M15.8333 4.99996V14.3333C15.8333 15.7334 15.8333 16.4335 15.5608 16.9683C15.3212 17.4387 14.9387 17.8211 14.4683 18.0608C13.9335 18.3333 13.2335 18.3333 11.8333 18.3333H8.16667C6.76654 18.3333 6.06647 18.3333 5.53169 18.0608C5.06129 17.8211 4.67883 17.4387 4.43915 16.9683C4.16667 16.4335 4.16667 15.7334 4.16667 14.3333V4.99996" stroke="#242424" stroke-width="1.5" stroke-linecap="round" stroke-linejoin="round"></path>
  </symbol>
  <symbol fill="none" xmlns="http://www.w3.org/2000/svg" viewBox="0 0 20 20" id="heart-white">
    <path d="M17.3671 3.84172C16.9415 3.41589 16.4361 3.0781 15.8799 2.84763C15.3237 2.61716 14.7275 2.49854 14.1254 2.49854C13.5234 2.49854 12.9272 2.61716 12.371 2.84763C11.8147 3.0781 11.3094 3.41589 10.8838 3.84172L10.0004 4.72506L9.11709 3.84172C8.25735 2.98198 7.09128 2.49898 5.87542 2.49898C4.65956 2.49898 3.4935 2.98198 2.63376 3.84172C1.77401 4.70147 1.29102 5.86753 1.29102 7.08339C1.29102 8.29925 1.77401 9.46531 2.63376 10.3251L3.51709 11.2084L10.0004 17.6917L16.4838 11.2084L17.3671 10.3251C17.7929 9.89943 18.1307 9.39407 18.3612 8.83785C18.5917 8.28164 18.7103 7.68546 18.7103 7.08339C18.7103 6.48132 18.5917 5.88514 18.3612 5.32893C18.1307 4.77271 17.7929 4.26735 17.3671 3.84172Z" stroke="#F4F4F4" stroke-width="1.5" stroke-linecap="round" stroke-linejoin="round"></path>
  </symbol>
  <symbol fill="none" xmlns="http://www.w3.org/2000/svg" viewBox="0 0 20 20" id="heart-black">
    <path d="M17.3671 3.84172C16.9415 3.41589 16.4361 3.0781 15.8799 2.84763C15.3237 2.61716 14.7275 2.49854 14.1254 2.49854C13.5234 2.49854 12.9272 2.61716 12.371 2.84763C11.8147 3.0781 11.3094 3.41589 10.8838 3.84172L10.0004 4.72506L9.11709 3.84172C8.25735 2.98198 7.09128 2.49898 5.87542 2.49898C4.65956 2.49898 3.4935 2.98198 2.63376 3.84172C1.77401 4.70147 1.29102 5.86753 1.29102 7.08339C1.29102 8.29925 1.77401 9.46531 2.63376 10.3251L3.51709 11.2084L10.0004 17.6917L16.4838 11.2084L17.3671 10.3251C17.7929 9.89943 18.1307 9.39407 18.3612 8.83785C18.5917 8.28164 18.7103 7.68546 18.7103 7.08339C18.7103 6.48132 18.5917 5.88514 18.3612 5.32893C18.1307 4.77271 17.7929 4.26735 17.3671 3.84172Z" stroke="#242424" stroke-width="1.5" stroke-linecap="round" stroke-linejoin="round"></path>
  </symbol>
  <symbol fill="none" xmlns="http://www.w3.org/2000/svg" viewBox="0 0 20 19" id="rating-star-gray">
    <path d="M9.04894 0.927052C9.3483 0.00574112 10.6517 0.00573993 10.9511 0.927051L12.4697 5.60081C12.6035 6.01284 12.9875 6.2918 13.4207 6.2918H18.335C19.3037 6.2918 19.7065 7.53141 18.9228 8.10081L14.947 10.9894C14.5966 11.244 14.4499 11.6954 14.5838 12.1074L16.1024 16.7812C16.4017 17.7025 15.3472 18.4686 14.5635 17.8992L10.5878 15.0106C10.2373 14.756 9.7627 14.756 9.41221 15.0106L5.43648 17.8992C4.65276 18.4686 3.59828 17.7025 3.89763 16.7812L5.41623 12.1074C5.55011 11.6954 5.40345 11.244 5.05296 10.9894L1.07722 8.10081C0.293507 7.53141 0.696283 6.2918 1.66501 6.2918H6.57929C7.01252 6.2918 7.39647 6.01284 7.53035 5.60081L9.04894 0.927052Z" fill="#F4F4F4" fill-opacity="0.2"></path>
  </symbol>
  <symbol fill="none" xmlns="http://www.w3.org/2000/svg" viewBox="0 0 14 13" id="rating-star-orange">
    <path d="M6.04894 0.927052C6.3483 0.0057416 7.6517 0.00574088 7.95106 0.927052L8.79611 3.52786C8.92999 3.93989 9.31394 4.21885 9.74717 4.21885H12.4818C13.4505 4.21885 13.8533 5.45846 13.0696 6.02786L10.8572 7.63525C10.5067 7.8899 10.3601 8.34127 10.494 8.75329L11.339 11.3541C11.6384 12.2754 10.5839 13.0415 9.80017 12.4721L7.58779 10.8647C7.2373 10.6101 6.7627 10.6101 6.41222 10.8647L4.19983 12.4721C3.41612 13.0415 2.36164 12.2754 2.66099 11.3541L3.50604 8.75329C3.63992 8.34127 3.49326 7.8899 3.14277 7.63525L0.930391 6.02787C0.146677 5.45846 0.549452 4.21885 1.51818 4.21885H4.25283C4.68606 4.21885 5.07001 3.93989 5.20389 3.52786L6.04894 0.927052Z" fill="#EEA10C"></path>
  </symbol>
  <symbol fill="none" xmlns="http://www.w3.org/2000/svg" viewBox="0 0 20 20" id="icon-running-man-black">
    <path d="M18.5293 5.90673C18.2672 5.59374 17.8004 5.55259 17.4874 5.81359L15.4362 7.53667L14.4929 5.19953C14.4593 5.1118 14.4084 5.03816 14.3499 4.97318C14.1572 4.5443 13.8225 4.17608 13.3611 3.96272C13.1608 3.87175 12.9539 3.82302 12.7471 3.79919C12.7016 3.77536 12.6604 3.74396 12.6084 3.72771L8.99876 2.72159C8.79624 2.66636 8.59264 2.7021 8.42585 2.79957C8.22766 2.86672 8.05763 3.01076 7.9764 3.21978L6.61722 6.71466C6.46993 7.0948 6.65837 7.52367 7.03959 7.67313C7.41865 7.82042 7.8486 7.63089 7.99698 7.24967L9.14497 4.29846L10.789 4.75549C10.7489 4.82047 10.7056 4.88112 10.6731 4.95043L8.56556 9.51858C8.53523 9.58573 8.51899 9.65396 8.49733 9.72327L5.936 14.0174L1.64944 15.4513C1.16425 15.8141 1.06136 16.4975 1.41984 16.9827C1.78048 17.469 2.46603 17.5719 2.95014 17.2134L7.33634 15.7026C7.47063 15.6051 7.5681 15.4773 7.64175 15.3398C7.69698 15.2813 7.7598 15.2347 7.80204 15.1622L9.32908 12.6019L12.0399 14.912L9.13956 18.1805C8.73992 18.6311 8.78 19.3253 9.23269 19.7238C9.68431 20.1256 10.3764 20.0834 10.7782 19.6307L14.3976 15.5531C14.5102 15.4275 14.5774 15.2824 14.6229 15.1308C14.6499 15.0484 14.6499 14.9629 14.6564 14.8773C14.6564 14.834 14.6727 14.795 14.6694 14.7549C14.6597 14.456 14.5384 14.1658 14.2936 13.9589L11.7994 11.8319C11.9792 11.6608 12.1319 11.4572 12.2424 11.2178L13.8582 7.71861L14.3759 9.09729C14.3976 9.21967 14.4387 9.33988 14.5254 9.4406C14.6034 9.53374 14.703 9.59547 14.8091 9.6388C14.82 9.64421 14.833 9.64529 14.846 9.64854C14.9131 9.67237 14.9813 9.69511 15.0517 9.69836C15.1351 9.70594 15.2196 9.69511 15.3051 9.67129C15.3073 9.6702 15.3084 9.6702 15.3084 9.6702C15.3311 9.66479 15.3539 9.66912 15.3766 9.65937C15.4968 9.61389 15.5889 9.53699 15.668 9.4471L18.6116 6.94859C18.9246 6.68542 18.7924 6.21972 18.5293 5.90673Z" fill="#242424"></path>
    <path d="M14.8063 4.12628C15.9457 4.12628 16.8694 3.20258 16.8694 2.06314C16.8694 0.923699 15.9457 0 14.8063 0C13.6669 0 12.7432 0.923699 12.7432 2.06314C12.7432 3.20258 13.6669 4.12628 14.8063 4.12628Z" fill="#242424"></path>
  </symbol>
  <symbol fill="none" xmlns="http://www.w3.org/2000/svg" viewBox="0 0 20 20" id="dumble-black">
    <path d="M4.6 5.71429H3.4C3.0675 5.71429 2.8 6.00089 2.8 6.35714V9.14286H2.2C2.09 9.14286 2 9.23929 2 9.35714V10.6429C2 10.7607 2.09 10.8571 2.2 10.8571H2.8V13.6429C2.8 13.9991 3.0675 14.2857 3.4 14.2857H4.6C4.9325 14.2857 5.2 13.9991 5.2 13.6429V6.35714C5.2 6.00089 4.9325 5.71429 4.6 5.71429ZM17.8 9.14286H17.2V6.35714C17.2 6.00089 16.9325 5.71429 16.6 5.71429H15.4C15.0675 5.71429 14.8 6.00089 14.8 6.35714V13.6429C14.8 13.9991 15.0675 14.2857 15.4 14.2857H16.6C16.9325 14.2857 17.2 13.9991 17.2 13.6429V10.8571H17.8C17.91 10.8571 18 10.7607 18 10.6429V9.35714C18 9.23929 17.91 9.14286 17.8 9.14286ZM13.4 4H12.2C11.8675 4 11.6 4.28661 11.6 4.64286V9.14286H8.4V4.64286C8.4 4.28661 8.1325 4 7.8 4H6.6C6.2675 4 6 4.28661 6 4.64286V15.3571C6 15.7134 6.2675 16 6.6 16H7.8C8.1325 16 8.4 15.7134 8.4 15.3571V10.8571H11.6V15.3571C11.6 15.7134 11.8675 16 12.2 16H13.4C13.7325 16 14 15.7134 14 15.3571V4.64286C14 4.28661 13.7325 4 13.4 4Z" fill="#242424"></path>
  </symbol>
  <symbol fill="none" xmlns="http://www.w3.org/2000/svg" viewBox="0 0 60 60" id="icon-sun">
    <path d="M28.4395 25.972L30 25.6803L31.5605 25.972L32.9102 26.8077L33.8669 28.0745L34.3013 29.6014L34.1548 31.1822L33.4472 32.6032L32.274 33.6727L30.7938 34.2462H29.2062L27.726 33.6727L26.5528 32.6032L25.8452 31.1822L25.6987 29.6014L26.1331 28.0745L27.0898 26.8077L28.4395 25.972Z" stroke="#242424" stroke-width="4"></path>
  </symbol>
  <symbol fill="none" xmlns="http://www.w3.org/2000/svg" viewBox="0 0 44 44" id="youtube-white">
    <rect x="0.5" y="0.5" width="43" height="43" rx="9.5" stroke="#F4F4F4" stroke-opacity="0.1"></rect>
    <g opacity="0.8">
      <path fill-rule="evenodd" clip-rule="evenodd" d="M29.2104 13.2499C28.0203 13.1799 25.5703 13.1099 21.8604 13.1099H21.3703C17.8003 13.1099 15.4204 13.1799 14.2304 13.3199C12.6204 13.4599 11.5003 13.8799 10.8703 14.4399C10.3103 14.9299 9.89036 15.8399 9.75036 17.0299C9.68036 17.7999 9.61035 19.4099 9.61035 21.8599V22.2099C9.61035 24.5199 9.68034 26.1299 9.82034 26.8999C10.0303 28.0199 10.3804 28.8599 11.0804 29.3499C11.7804 29.9099 12.9704 30.2599 14.6504 30.3999C15.8404 30.4699 18.2904 30.5399 22.0004 30.5399H22.4904C26.0604 30.5399 28.4404 30.4699 29.6304 30.3299C31.2404 30.1899 32.3604 29.7699 32.9904 29.2099C33.5504 28.7199 33.9703 27.8099 34.1103 26.6199C34.1803 25.8499 34.2504 24.2399 34.2504 21.7899V21.4399C34.2504 19.1299 34.1804 17.5199 34.0404 16.7499C33.8304 15.6299 33.4804 14.7899 32.7804 14.2999C32.0804 13.7399 30.8904 13.3899 29.2104 13.2499ZM26.4804 21.8599L18.7804 26.4799V17.2399L26.4804 21.8599Z" fill="#F4F4F4"></path>
    </g>
  </symbol>
  <symbol fill="none" xmlns="http://www.w3.org/2000/svg" viewBox="0 0 44 44" id="instagram-white">
    <rect x="0.5" y="0.5" width="43" height="43" rx="9.5" stroke="#F4F4F4" stroke-opacity="0.1"></rect>
    <g opacity="0.8">
      <path d="M33.1277 17.4115C33.114 16.4715 32.9398 15.5388 32.6065 14.6596C32.0231 13.1583 30.8352 11.9711 29.3313 11.3899C28.4618 11.0633 27.5426 10.8882 26.6122 10.8683C25.4155 10.815 25.0361 10.8 21.9986 10.8C18.961 10.8 18.5716 10.8 17.3837 10.8683C16.4545 10.8882 15.5353 11.0633 14.6658 11.3899C13.162 11.9711 11.9728 13.1583 11.3907 14.6596C11.0635 15.5277 10.8869 16.4454 10.8695 17.373C10.816 18.5689 10.7998 18.9477 10.7998 21.9802C10.7998 25.0127 10.7998 25.4002 10.8695 26.5873C10.8881 27.5162 11.0635 28.4327 11.3907 29.3032C11.974 30.8033 13.162 31.9905 14.6671 32.5717C15.5328 32.9095 16.452 33.1007 17.385 33.1305C18.5828 33.1839 18.9622 33.2001 21.9998 33.2001C25.0374 33.2001 25.4267 33.2001 26.6146 33.1305C27.5438 33.1119 28.4631 32.9368 29.3338 32.6102C30.8377 32.0278 32.0256 30.8406 32.609 29.3405C32.9361 28.4712 33.1115 27.5547 33.1301 26.6246C33.1836 25.43 33.1998 25.0512 33.1998 22.0174C33.1973 18.9849 33.1973 18.5999 33.1277 17.4115ZM21.9911 27.7149C18.8142 27.7149 16.2406 25.1456 16.2406 21.974C16.2406 18.8024 18.8142 16.233 21.9911 16.233C25.1655 16.233 27.7416 18.8024 27.7416 21.974C27.7416 25.1456 25.1655 27.7149 21.9911 27.7149ZM27.9705 17.3594C27.2279 17.3594 26.6296 16.7608 26.6296 16.0207C26.6296 15.2805 27.2279 14.682 27.9705 14.682C28.7106 14.682 29.3102 15.2805 29.3102 16.0207C29.3102 16.7608 28.7106 17.3594 27.9705 17.3594Z" fill="#F4F4F4"></path>
      <path d="M21.9928 25.4789C23.9277 25.4789 25.4963 23.9104 25.4963 21.9754C25.4963 20.0405 23.9277 18.4719 21.9928 18.4719C20.0578 18.4719 18.4893 20.0405 18.4893 21.9754C18.4893 23.9104 20.0578 25.4789 21.9928 25.4789Z" fill="#F4F4F4"></path>
    </g>
  </symbol>
  <symbol fill="none" xmlns="http://www.w3.org/2000/svg" viewBox="0 0 44 44" id="facebook-white">
    <rect x="0.5" y="0.5" width="43" height="43" rx="9.5" stroke="#F4F4F4" stroke-opacity="0.1"></rect>
    <g opacity="0.8">
      <path d="M25.0804 12.0601C25.2904 12.0601 25.5004 12.0601 25.9204 12.0601V15.2101C25.7104 15.2101 25.2904 15.2101 24.8704 15.2101C24.4504 15.2101 24.0304 15.2101 23.8204 15.4201C23.6104 15.6301 23.6104 15.8401 23.6104 16.3301C23.6104 16.7501 23.6104 17.0301 23.6104 17.4501H25.9204V20.1101H23.6104V31.6601H20.0404V20.0401H18.1504V17.3801H20.0404V16.4701C20.0404 14.9301 20.2504 13.8101 20.6704 13.3201C21.3004 12.4101 22.5604 11.9901 24.4504 11.9901C24.6604 12.0601 24.8704 12.0601 25.0804 12.0601Z" fill="#F4F4F4"></path>
    </g>
  </symbol>
  <symbol fill="none" xmlns="http://www.w3.org/2000/svg" viewBox="0 0 44 44" id="youtube-gray">
    <rect x="0.5" y="0.5" width="43" height="43" rx="9.5" stroke="#242424" stroke-opacity="0.1"></rect>
    <g opacity="0.8">
      <path fill-rule="evenodd" clip-rule="evenodd" d="M29.2104 13.2499C28.0203 13.1799 25.5703 13.1099 21.8604 13.1099H21.3703C17.8003 13.1099 15.4204 13.1799 14.2304 13.3199C12.6204 13.4599 11.5003 13.8799 10.8703 14.4399C10.3103 14.9299 9.89036 15.8399 9.75036 17.0299C9.68036 17.7999 9.61035 19.4099 9.61035 21.8599V22.2099C9.61035 24.5199 9.68034 26.1299 9.82034 26.8999C10.0303 28.0199 10.3804 28.8599 11.0804 29.3499C11.7804 29.9099 12.9704 30.2599 14.6504 30.3999C15.8404 30.4699 18.2904 30.5399 22.0004 30.5399H22.4904C26.0604 30.5399 28.4404 30.4699 29.6304 30.3299C31.2404 30.1899 32.3604 29.7699 32.9904 29.2099C33.5504 28.7199 33.9703 27.8099 34.1103 26.6199C34.1803 25.8499 34.2504 24.2399 34.2504 21.7899V21.4399C34.2504 19.1299 34.1804 17.5199 34.0404 16.7499C33.8304 15.6299 33.4804 14.7899 32.7804 14.2999C32.0804 13.7399 30.8904 13.3899 29.2104 13.2499ZM26.4804 21.8599L18.7804 26.4799V17.2399L26.4804 21.8599Z" fill="#242424"></path>
    </g>
  </symbol>
  <symbol fill="none" xmlns="http://www.w3.org/2000/svg" viewBox="0 0 44 44" id="instagram-gray">
    <rect x="0.5" y="0.5" width="43" height="43" rx="9.5" stroke="#242424" stroke-opacity="0.1"></rect>
    <g opacity="0.8">
      <path d="M33.1277 17.4115C33.114 16.4715 32.9398 15.5388 32.6065 14.6596C32.0231 13.1583 30.8352 11.9711 29.3313 11.3899C28.4618 11.0633 27.5426 10.8882 26.6122 10.8683C25.4155 10.815 25.0361 10.8 21.9986 10.8C18.961 10.8 18.5716 10.8 17.3837 10.8683C16.4545 10.8882 15.5353 11.0633 14.6658 11.3899C13.162 11.9711 11.9728 13.1583 11.3907 14.6596C11.0635 15.5277 10.8869 16.4454 10.8695 17.373C10.816 18.5689 10.7998 18.9477 10.7998 21.9802C10.7998 25.0127 10.7998 25.4002 10.8695 26.5873C10.8881 27.5162 11.0635 28.4327 11.3907 29.3032C11.974 30.8033 13.162 31.9905 14.6671 32.5717C15.5328 32.9095 16.452 33.1007 17.385 33.1305C18.5828 33.1839 18.9622 33.2001 21.9998 33.2001C25.0374 33.2001 25.4267 33.2001 26.6146 33.1305C27.5438 33.1119 28.4631 32.9368 29.3338 32.6102C30.8377 32.0278 32.0256 30.8406 32.609 29.3405C32.9361 28.4712 33.1115 27.5547 33.1301 26.6246C33.1836 25.43 33.1998 25.0512 33.1998 22.0174C33.1973 18.9849 33.1973 18.5999 33.1277 17.4115ZM21.9911 27.7149C18.8142 27.7149 16.2406 25.1456 16.2406 21.974C16.2406 18.8024 18.8142 16.233 21.9911 16.233C25.1655 16.233 27.7416 18.8024 27.7416 21.974C27.7416 25.1456 25.1655 27.7149 21.9911 27.7149ZM27.9705 17.3594C27.2279 17.3594 26.6296 16.7608 26.6296 16.0207C26.6296 15.2805 27.2279 14.682 27.9705 14.682C28.7106 14.682 29.3102 15.2805 29.3102 16.0207C29.3102 16.7608 28.7106 17.3594 27.9705 17.3594Z" fill="#242424"></path>
      <path d="M21.9928 25.4789C23.9277 25.4789 25.4963 23.9104 25.4963 21.9754C25.4963 20.0405 23.9277 18.4719 21.9928 18.4719C20.0578 18.4719 18.4893 20.0405 18.4893 21.9754C18.4893 23.9104 20.0578 25.4789 21.9928 25.4789Z" fill="#242424"></path>
    </g>
  </symbol>
  <symbol fill="none" xmlns="http://www.w3.org/2000/svg" viewBox="0 0 44 44" id="facebook-gray">
    <rect x="0.5" y="0.5" width="43" height="43" rx="9.5" stroke="#242424" stroke-opacity="0.1"></rect>
    <g opacity="0.8">
      <path d="M25.0804 12.0601C25.2904 12.0601 25.5004 12.0601 25.9204 12.0601V15.2101C25.7104 15.2101 25.2904 15.2101 24.8704 15.2101C24.4504 15.2101 24.0304 15.2101 23.8204 15.4201C23.6104 15.6301 23.6104 15.8401 23.6104 16.3301C23.6104 16.7501 23.6104 17.0301 23.6104 17.4501H25.9204V20.1101H23.6104V31.6601H20.0404V20.0401H18.1504V17.3801H20.0404V16.4701C20.0404 14.9301 20.2504 13.8101 20.6704 13.3201C21.3004 12.4101 22.5604 11.9901 24.4504 11.9901C24.6604 12.0601 24.8704 12.0601 25.0804 12.0601Z" fill="#242424"></path>
    </g>
  </symbol>
  <symbol fill="none" xmlns="http://www.w3.org/2000/svg" viewBox="0 0 32 32" id="dumble-white">
    <circle cx="16" cy="16" r="16" fill="#242424"></circle>
    <path d="M10.6 11.7143H9.4C9.0675 11.7143 8.8 12.0009 8.8 12.3571V15.1429H8.2C8.09 15.1429 8 15.2393 8 15.3571V16.6429C8 16.7607 8.09 16.8571 8.2 16.8571H8.8V19.6429C8.8 19.9991 9.0675 20.2857 9.4 20.2857H10.6C10.9325 20.2857 11.2 19.9991 11.2 19.6429V12.3571C11.2 12.0009 10.9325 11.7143 10.6 11.7143ZM23.8 15.1429H23.2V12.3571C23.2 12.0009 22.9325 11.7143 22.6 11.7143H21.4C21.0675 11.7143 20.8 12.0009 20.8 12.3571V19.6429C20.8 19.9991 21.0675 20.2857 21.4 20.2857H22.6C22.9325 20.2857 23.2 19.9991 23.2 19.6429V16.8571H23.8C23.91 16.8571 24 16.7607 24 16.6429V15.3571C24 15.2393 23.91 15.1429 23.8 15.1429ZM19.4 10H18.2C17.8675 10 17.6 10.2866 17.6 10.6429V15.1429H14.4V10.6429C14.4 10.2866 14.1325 10 13.8 10H12.6C12.2675 10 12 10.2866 12 10.6429V21.3571C12 21.7134 12.2675 22 12.6 22H13.8C14.1325 22 14.4 21.7134 14.4 21.3571V16.8571H17.6V21.3571C17.6 21.7134 17.8675 22 18.2 22H19.4C19.7325 22 20 21.7134 20 21.3571V10.6429C20 10.2866 19.7325 10 19.4 10Z" fill="#F4F4F4"></path>
  </symbol>
</svg>